<svg width="20" height="20" viewBox="0 0 20 20" fill="none" xmlns="http://www.w3.org/2000/svg">
<path d="M11.0505 10L17.4922 2.32147C17.6002 2.19387 17.5094 2 17.3425 2H15.3842C15.2689 2 15.1585 2.05153 15.0824 2.13988L9.76952 8.47362L4.45664 2.13988C4.38302 2.05153 4.27259 2 4.1548 2H2.19652C2.02964 2 1.93885 2.19387 2.04682 2.32147L8.48854 10L2.04682 17.6785C2.02263 17.707 2.00712 17.7418 2.00211 17.7788C1.99711 17.8158 2.00282 17.8534 2.01859 17.8873C2.03435 17.9211 2.05949 17.9497 2.09103 17.9697C2.12257 17.9897 2.15918 18.0002 2.19652 18H4.1548C4.27013 18 4.38056 17.9485 4.45664 17.8601L9.76952 11.5264L15.0824 17.8601C15.156 17.9485 15.2665 18 15.3842 18H17.3425C17.5094 18 17.6002 17.8061 17.4922 17.6785L11.0505 10Z" fill="#49A6E9"/>
</svg>
