<svg width="20" height="20" viewBox="0 0 20 20" fill="none" xmlns="http://www.w3.org/2000/svg">
<path d="M14.5588 7.48149C15.107 7.14258 15.5297 6.63413 15.7627 6.03325C15.9958 5.43238 16.0266 4.77188 15.8503 4.15196C15.674 3.53204 15.3004 2.98652 14.786 2.59816C14.2717 2.2098 13.6447 1.99979 13.0002 2H7.96311C7.3186 1.99977 6.69159 2.20976 6.17722 2.59813C5.66285 2.98649 5.28919 3.53203 5.11292 4.15197C4.93666 4.77192 4.96741 5.43244 5.20051 6.03333C5.43361 6.63421 5.85634 7.14267 6.40457 7.48157C5.97519 7.74683 5.62076 8.11747 5.37495 8.55827C5.12914 8.99907 5.00011 9.4954 5.00012 10.0001C5.00013 10.5048 5.12917 11.0011 5.375 11.4419C5.62082 11.8827 5.97526 12.2534 6.40464 12.5186C5.96573 12.7903 5.60541 13.1719 5.35939 13.6257C5.11338 14.0795 4.9902 14.5897 5.00207 15.1057C5.01395 15.6218 5.16045 16.1258 5.42707 16.5678C5.6937 17.0097 6.07119 17.3744 6.52213 17.6256C6.97308 17.8768 7.48183 18.0058 7.99798 17.9998C8.51413 17.9938 9.01977 17.8531 9.46478 17.5915C9.90979 17.33 10.2787 16.9567 10.5351 16.5086C10.7914 16.0606 10.9262 15.5534 10.9261 15.0372V12.1134C11.2234 12.4053 11.5789 12.6312 11.9695 12.7763C12.36 12.9214 12.7768 12.9825 13.1926 12.9555C13.6083 12.9286 14.0137 12.8142 14.3823 12.6199C14.7508 12.4255 15.0742 12.1556 15.3313 11.8278C15.5884 11.5 15.7735 11.1216 15.8743 10.7173C15.9752 10.3131 15.9897 9.89213 15.9168 9.48192C15.8439 9.07172 15.6852 8.68152 15.4512 8.33681C15.2172 7.9921 14.9131 7.70065 14.5588 7.48149V7.48149ZM15.0743 4.96301C15.0737 5.51265 14.8552 6.03963 14.4667 6.42843C14.0782 6.81723 13.5514 7.03612 13.0017 7.03712L13.0002 7.03704L12.9973 7.03712L10.9261 7.03704V2.8889H13.0002C13.5501 2.88951 14.0773 3.10823 14.4662 3.49707C14.855 3.8859 15.0737 4.41311 15.0743 4.96301V4.96301ZM5.88901 4.96301C5.88961 4.41311 6.10833 3.8859 6.49717 3.49707C6.88601 3.10823 7.41321 2.88951 7.96311 2.8889H10.0372V7.03704H7.96171C7.41206 7.03606 6.88523 6.81719 6.4967 6.42841C6.10817 6.03963 5.88963 5.51265 5.88901 4.96301V4.96301ZM5.88901 10C5.88961 9.45039 6.10814 8.9234 6.49667 8.5346C6.88521 8.1458 7.41205 7.92692 7.96171 7.92594L7.96311 7.92602H10.0372V12.0741L7.96311 12.0742C7.41321 12.0735 6.88601 11.8548 6.49717 11.466C6.10833 11.0772 5.88961 10.55 5.88901 10V10ZM7.96311 17.1112C7.6897 17.1128 7.41866 17.0604 7.16559 16.9569C6.91252 16.8534 6.68241 16.7009 6.48849 16.5081C6.29458 16.3154 6.14069 16.0862 6.03568 15.8337C5.93067 15.5813 5.87661 15.3105 5.87661 15.0371C5.87661 14.7637 5.93067 14.493 6.03568 14.2405C6.14069 13.9881 6.29458 13.7589 6.48849 13.5661C6.68241 13.3734 6.91252 13.2209 7.16559 13.1174C7.41866 13.0139 7.6897 12.9614 7.96311 12.9631H10.0372V15.0372C10.0366 15.5871 9.81787 16.1142 9.42903 16.5031C9.04019 16.8919 8.513 17.1106 7.96311 17.1112V17.1112ZM13.0002 12.0742C12.4523 12.0713 11.9277 11.8517 11.5412 11.4634C11.1546 11.075 10.9374 10.5495 10.937 10.0015C10.9366 9.45357 11.1531 8.92773 11.5391 8.53885C11.9252 8.14997 12.4494 7.92965 12.9973 7.92602H13.0017C13.5496 7.92948 14.0739 8.14963 14.4601 8.53837C14.8463 8.92712 15.0629 9.45288 15.0627 10.0008C15.0625 10.5488 14.8455 11.0744 14.4591 11.4628C14.0726 11.8513 13.5482 12.0711 13.0002 12.0742V12.0742Z" fill="#49A6E9"/>
</svg>
