<svg width="20" height="20" viewBox="0 0 20 20" fill="none" xmlns="http://www.w3.org/2000/svg">
<path d="M16.714 2H3.286C2.576 2 2 2.576 2 3.286V16.714C2 17.424 2.576 18 3.286 18H16.714C17.424 18 18 17.424 18 16.714V3.286C18 2.576 17.424 2 16.714 2V2ZM16.714 16.72C7.758 16.718 3.28 16.716 3.28 16.714C3.282 7.758 3.284 3.28 3.286 3.28C12.242 3.282 16.72 3.284 16.72 3.286C16.718 12.242 16.716 16.72 16.714 16.72ZM4.372 7.998H6.746V15.634H4.372V7.998ZM5.56 6.954C6.318 6.954 6.936 6.338 6.936 5.578C6.936 5.3973 6.90041 5.21837 6.83126 5.05143C6.76211 4.88448 6.66075 4.73279 6.53298 4.60502C6.40521 4.47725 6.25352 4.37589 6.08657 4.30674C5.91963 4.23759 5.7407 4.202 5.56 4.202C5.3793 4.202 5.20037 4.23759 5.03343 4.30674C4.86648 4.37589 4.71479 4.47725 4.58702 4.60502C4.45925 4.73279 4.35789 4.88448 4.28874 5.05143C4.21959 5.21837 4.184 5.3973 4.184 5.578C4.182 6.338 4.798 6.954 5.56 6.954ZM10.606 11.856C10.606 10.86 10.796 9.896 12.03 9.896C13.246 9.896 13.264 11.034 13.264 11.92V15.634H15.636V11.446C15.636 9.39 15.192 7.808 12.79 7.808C11.636 7.808 10.862 8.442 10.544 9.042H10.512V7.998H8.234V15.634H10.606V11.856Z" fill="#49A6E9"/>
</svg>
