<svg width="144" height="24" viewBox="0 0 144 24" fill="none" xmlns="http://www.w3.org/2000/svg">
<path d="M14.0857 7.14698C14.0857 9.58976 13.0435 10.9821 10.959 11.3241L14.2567 18.4082H11.4842L8.23526 11.4096H2.75121V18.4082H0.247359V0.893459H9.83528C12.6689 0.893459 14.0857 2.31434 14.0857 5.15611V7.14698ZM2.75121 8.90578H9.70092C10.3686 8.90578 10.849 8.75922 11.1422 8.46608C11.4353 8.17295 11.5819 7.69253 11.5819 7.02484V5.27825C11.5819 4.61056 11.4353 4.13014 11.1422 3.83701C10.849 3.54388 10.3686 3.39731 9.70092 3.39731H2.75121V8.90578ZM18.0308 12.7287C18.0308 12.3949 18.0919 12.0855 18.214 11.8005C18.3443 11.5073 18.5153 11.2509 18.727 11.031C18.9469 10.8112 19.2033 10.6402 19.4965 10.518C19.7896 10.3877 20.099 10.3226 20.4247 10.3226H26.6294V7.80653H18.7759V5.40039H26.6294C26.9632 5.40039 27.2767 5.46553 27.5699 5.59581C27.863 5.71795 28.1154 5.88895 28.3271 6.1088C28.547 6.32051 28.718 6.57293 28.8401 6.86606C28.9704 7.15919 29.0355 7.47268 29.0355 7.80653V18.4082H26.6294V16.2097C26.605 16.511 26.5235 16.796 26.3851 17.0647C26.2467 17.3334 26.0676 17.5695 25.8477 17.7731C25.636 17.9685 25.3917 18.1232 25.1149 18.2372C24.838 18.3512 24.5449 18.4082 24.2355 18.4082H20.4247C20.099 18.4082 19.7896 18.3471 19.4965 18.225C19.2033 18.0947 18.9469 17.9237 18.727 17.712C18.5153 17.4922 18.3443 17.2357 18.214 16.9425C18.0919 16.6494 18.0308 16.3359 18.0308 16.0021V12.7287ZM20.4247 16.0021H26.6294V12.7287H20.4247V16.0021ZM44.5594 18.4082H42.1533V7.80653H35.4478V18.4082H33.0539V5.40039H35.4478V7.69661C35.4641 7.37904 35.5374 7.08184 35.6677 6.80499C35.798 6.52 35.969 6.27572 36.1807 6.07216C36.4005 5.86045 36.6529 5.6976 36.9379 5.5836C37.2229 5.46146 37.5283 5.40039 37.854 5.40039H42.1533C42.4871 5.40039 42.8006 5.46553 43.0937 5.59581C43.3869 5.71795 43.6393 5.88895 43.851 6.1088C44.0709 6.32051 44.2419 6.57293 44.364 6.86606C44.4943 7.15919 44.5594 7.47268 44.5594 7.80653V18.4082ZM48.5656 7.80653C48.5656 7.47268 48.6267 7.15919 48.7488 6.86606C48.8791 6.57293 49.0501 6.32051 49.2618 6.1088C49.4816 5.88895 49.7381 5.71795 50.0312 5.59581C50.3244 5.46553 50.6338 5.40039 50.9595 5.40039H57.6649V0.392689H60.0711V18.4082H57.6649V16.2097C57.6405 16.511 57.5591 16.796 57.4207 17.0647C57.2822 17.3334 57.1031 17.5695 56.8833 17.7731C56.6715 17.9685 56.4273 18.1232 56.1504 18.2372C55.8736 18.3512 55.5804 18.4082 55.271 18.4082H50.9595C50.6338 18.4082 50.3244 18.3471 50.0312 18.225C49.7381 18.0947 49.4816 17.9237 49.2618 17.712C49.0501 17.4922 48.8791 17.2357 48.7488 16.9425C48.6267 16.6494 48.5656 16.3359 48.5656 16.0021V7.80653ZM50.9595 16.0021H57.6649V7.80653H50.9595V16.0021ZM75.3263 16.0021C75.3263 16.3359 75.2611 16.6494 75.1308 16.9425C75.0087 17.2357 74.8377 17.4922 74.6178 17.712C74.4061 17.9237 74.1537 18.0947 73.8606 18.225C73.5756 18.3471 73.2662 18.4082 72.9323 18.4082H66.4712C66.1455 18.4082 65.836 18.3471 65.5429 18.225C65.2498 18.0947 64.9933 17.9237 64.7734 17.712C64.5617 17.4922 64.3907 17.2357 64.2605 16.9425C64.1383 16.6494 64.0772 16.3359 64.0772 16.0021V7.80653C64.0772 7.47268 64.1383 7.15919 64.2605 6.86606C64.3907 6.57293 64.5617 6.32051 64.7734 6.1088C64.9933 5.88895 65.2498 5.71795 65.5429 5.59581C65.836 5.46553 66.1455 5.40039 66.4712 5.40039H72.9323C73.2662 5.40039 73.5756 5.46553 73.8606 5.59581C74.1537 5.71795 74.4061 5.88895 74.6178 6.1088C74.8377 6.32051 75.0087 6.57293 75.1308 6.86606C75.2611 7.15919 75.3263 7.47268 75.3263 7.80653V16.0021ZM66.4712 7.80653V16.0021H72.9323V7.80653H66.4712ZM89.5921 0.893459V15.9044H98.5937V18.4082H87.0882V0.893459H89.5921ZM112.603 16.0021C112.603 16.3359 112.538 16.6494 112.408 16.9425C112.286 17.2357 112.115 17.4922 111.895 17.712C111.683 17.9237 111.431 18.0947 111.137 18.225C110.852 18.3471 110.543 18.4082 110.209 18.4082H103.748C103.422 18.4082 103.113 18.3471 102.82 18.225C102.527 18.0947 102.27 17.9237 102.05 17.712C101.839 17.4922 101.668 17.2357 101.537 16.9425C101.415 16.6494 101.354 16.3359 101.354 16.0021V7.80653C101.354 7.47268 101.415 7.15919 101.537 6.86606C101.668 6.57293 101.839 6.32051 102.05 6.1088C102.27 5.88895 102.527 5.71795 102.82 5.59581C103.113 5.46553 103.422 5.40039 103.748 5.40039H110.209C110.543 5.40039 110.852 5.46553 111.137 5.59581C111.431 5.71795 111.683 5.88895 111.895 6.1088C112.115 6.32051 112.286 6.57293 112.408 6.86606C112.538 7.15919 112.603 7.47268 112.603 7.80653V16.0021ZM103.748 7.80653V16.0021H110.209V7.80653H103.748ZM116.621 7.80653C116.621 7.47268 116.683 7.15919 116.805 6.86606C116.935 6.57293 117.106 6.32051 117.318 6.1088C117.538 5.88895 117.794 5.71795 118.087 5.59581C118.38 5.46553 118.69 5.40039 119.015 5.40039H123.327C123.644 5.40039 123.946 5.46146 124.231 5.5836C124.516 5.6976 124.764 5.86045 124.976 6.07216C125.196 6.27572 125.371 6.52 125.501 6.80499C125.639 7.08184 125.713 7.37904 125.721 7.69661V5.40039H128.127V21.254C128.127 21.5879 128.062 21.9014 127.932 22.1945C127.809 22.4876 127.638 22.7401 127.419 22.9518C127.207 23.1716 126.954 23.3426 126.661 23.4648C126.368 23.595 126.055 23.6602 125.721 23.6602H118.124V21.254H125.721V17.9074H119.015C118.69 17.9074 118.38 17.8464 118.087 17.7242C117.794 17.5939 117.538 17.4229 117.318 17.2112C117.106 16.9914 116.935 16.7349 116.805 16.4418C116.683 16.1486 116.621 15.8351 116.621 15.5013V7.80653ZM125.721 15.5013V7.80653H119.015V15.5013H125.721ZM143.382 16.0021C143.382 16.3359 143.317 16.6494 143.187 16.9425C143.065 17.2357 142.894 17.4922 142.674 17.712C142.462 17.9237 142.21 18.0947 141.916 18.225C141.631 18.3471 141.322 18.4082 140.988 18.4082H134.527C134.201 18.4082 133.892 18.3471 133.599 18.225C133.306 18.0947 133.049 17.9237 132.829 17.712C132.618 17.4922 132.447 17.2357 132.316 16.9425C132.194 16.6494 132.133 16.3359 132.133 16.0021V7.80653C132.133 7.47268 132.194 7.15919 132.316 6.86606C132.447 6.57293 132.618 6.32051 132.829 6.1088C133.049 5.88895 133.306 5.71795 133.599 5.59581C133.892 5.46553 134.201 5.40039 134.527 5.40039H140.988C141.322 5.40039 141.631 5.46553 141.916 5.59581C142.21 5.71795 142.462 5.88895 142.674 6.1088C142.894 6.32051 143.065 6.57293 143.187 6.86606C143.317 7.15919 143.382 7.47268 143.382 7.80653V16.0021ZM134.527 7.80653V16.0021H140.988V7.80653H134.527Z" fill="#49A6E9"/>
</svg>
