<svg width="20" height="20" viewBox="0 0 20 20" fill="none" xmlns="http://www.w3.org/2000/svg">
<path d="M17.973 7.93687L14.0598 3.04626C14.0481 3.03192 14.0334 3.02034 14.0168 3.01234C14.0001 3.00434 13.9819 3.00012 13.9634 3H6.03662C6 3 5.96337 3.01735 5.94024 3.04626L2.02698 7.93687C2.00886 7.9598 1.99933 7.98835 2.00004 8.01757C2.00074 8.04678 2.01164 8.07484 2.03084 8.09687L9.90747 16.9547C9.9306 16.9817 9.9653 16.9952 10 16.9952C10.0347 16.9952 10.0675 16.9798 10.0925 16.9547L17.9692 8.09687C17.9884 8.07484 17.9993 8.04678 18 8.01757C18.0007 7.98835 17.9911 7.9598 17.973 7.93687V7.93687ZM12.5677 4.10651L13.2308 6.68771L10.6766 4.10651H12.5677ZM12.7258 7.54747H7.27421L10 4.79277L12.7258 7.54747V7.54747ZM7.43229 4.10651H9.32337L6.76723 6.68771L7.43229 4.10651ZM6.40289 4.24145L5.55277 7.54747H3.75807L6.40289 4.24145V4.24145ZM3.88144 8.51133H5.7012L8.12626 13.2863L3.88144 8.51133V8.51133ZM10 14.8439L6.78265 8.51133H13.2154L10 14.8439ZM11.8718 13.2863L14.2988 8.51133H16.1186L11.8718 13.2863ZM14.4472 7.54747L13.5971 4.24145L16.2419 7.54747H14.4472V7.54747Z" fill="#49A6E9"/>
</svg>
